<svg xmlns="http://www.w3.org/2000/svg" xmlns:xlink="http://www.w3.org/1999/xlink" width="183.158" height="183.165" viewBox="0 0 183.158 183.165">
  <defs>
    <clipPath id="clip-path">
      <rect id="Rectangle_4" data-name="Rectangle 4" width="146.69" height="146.679" transform="translate(0 0)" fill="#090808"/>
    </clipPath>
    <clipPath id="clip-path-2">
      <rect id="Rectangle_5" data-name="Rectangle 5" width="146.69" height="146.679" transform="translate(0 0)"/>
    </clipPath>
  </defs>
  <g id="Group_78" data-name="Group 78" transform="translate(-848 -849)">
    <path id="trending_flat_FILL0_wght400_GRAD0_opsz48" d="M162.97-630.716l-3.175-3.1,7.826-7.826H120v-4.43h47.7l-7.826-7.826,3.1-3.1,13.142,13.142Z" transform="translate(792 1584)"/>
    <g id="Group_11" data-name="Group 11" transform="translate(890.888 1032.165) rotate(-107)">
      <g id="Group_10" data-name="Group 10" transform="translate(0 0)">
        <text id="S" transform="matrix(0.634, -0.773, 0.773, 0.634, 24.033, 38.25)" font-size="15" font-family="SegoeUI, Segoe UI"><tspan x="0" y="0">S</tspan></text>
        <text id="C" transform="matrix(0.731, -0.682, 0.682, 0.731, 28.778, 32.344)" font-size="15" font-family="SegoeUI, Segoe UI"><tspan x="0" y="0">C</tspan></text>
        <text id="R" transform="matrix(0.819, -0.573, 0.573, 0.819, 35.084, 26.421)" font-size="15" font-family="SegoeUI, Segoe UI"><tspan x="0" y="0">R</tspan></text>
        <text id="O" transform="translate(41.644 21.658) rotate(-26.381)" font-size="15" font-family="SegoeUI, Segoe UI"><tspan x="0" y="0">O</tspan></text>
        <text id="L" transform="matrix(0.95, -0.312, 0.312, 0.95, 50.927, 17.146)" font-size="15" font-family="SegoeUI, Segoe UI"><tspan x="0" y="0">L</tspan></text>
        <g id="Group_3" data-name="Group 3">
          <g id="Group_2" data-name="Group 2" clip-path="url(#clip-path)">
            <text id="L-2" data-name="L" transform="translate(57.441 14.969) rotate(-11.655)" fill="#090808" font-size="15" font-family="SegoeUI, Segoe UI"><tspan x="0" y="0">L</tspan></text>
            <text id="_" data-name=" " transform="translate(64.238 13.629) rotate(-6.905)" fill="#090808" font-size="15" font-family="SegoeUI, Segoe UI"><tspan x="0" y="0"> </tspan></text>
            <text id="T" transform="translate(67.256 13.149) rotate(-1.995)" fill="#090808" font-size="15" font-family="SegoeUI, Segoe UI"><tspan x="0" y="0">T</tspan></text>
            <text id="O-2" data-name="O" transform="translate(73.978 12.733) rotate(5.708)" fill="#090808" font-size="15" font-family="SegoeUI, Segoe UI"><tspan x="0" y="0">O</tspan></text>
            <text id="_2" data-name=" " transform="translate(84.277 13.936) rotate(12.056)" fill="#090808" font-size="15" font-family="SegoeUI, Segoe UI"><tspan x="0" y="0"> </tspan></text>
            <text id="E" transform="translate(87.323 14.462) rotate(17.145)" fill="#090808" font-size="15" font-family="SegoeUI, Segoe UI"><tspan x="0" y="0">E</tspan></text>
          </g>
        </g>
        <text id="X" transform="matrix(0.908, 0.419, -0.419, 0.908, 94.439, 16.577)" font-size="15" font-family="SegoeUI, Segoe UI"><tspan x="0" y="0">X</tspan></text>
        <text id="P" transform="matrix(0.843, 0.538, -0.538, 0.843, 102.194, 20.132)" font-size="15" font-family="SegoeUI, Segoe UI"><tspan x="0" y="0">P</tspan></text>
        <text id="L-3" data-name="L" transform="matrix(0.772, 0.636, -0.636, 0.772, 108.871, 24.387)" font-size="15" font-family="SegoeUI, Segoe UI"><tspan x="0" y="0">L</tspan></text>
        <text id="O-3" data-name="O" transform="translate(113.909 28.299) rotate(47.155)" font-size="15" font-family="SegoeUI, Segoe UI"><tspan x="0" y="0">O</tspan></text>
        <text id="R-2" data-name="R" transform="translate(120.881 35.852) rotate(55.914)" font-size="15" font-family="SegoeUI, Segoe UI"><tspan x="0" y="0">R</tspan></text>
        <text id="E-2" data-name="E" transform="translate(125.571 42.767) rotate(63.4)" font-size="15" font-family="SegoeUI, Segoe UI"><tspan x="0" y="0">E</tspan></text>
        <text id="_3" data-name=" " transform="matrix(0.367, 0.93, -0.93, 0.367, 128.879, 49.544)" font-size="15" font-family="SegoeUI, Segoe UI"><tspan x="0" y="0"> </tspan></text>
        <g id="Group_5" data-name="Group 5">
          <g id="Group_4" data-name="Group 4" clip-path="url(#clip-path-2)">
            <text id="M" transform="translate(130.262 52.233) rotate(75.459)" font-size="15" font-family="SegoeUI, Segoe UI"><tspan x="0" y="0">M</tspan></text>
            <text id="O-4" data-name="O" transform="matrix(0.074, 0.997, -0.997, 0.074, 133.158, 63.384)" font-size="15" font-family="SegoeUI, Segoe UI"><tspan x="0" y="0">O</tspan></text>
            <text id="R-3" data-name="R" transform="translate(133.892 73.64) rotate(94.441)" font-size="15" font-family="SegoeUI, Segoe UI"><tspan x="0" y="0">R</tspan></text>
            <text id="E-3" data-name="E" transform="matrix(-0.207, 0.978, -0.978, -0.207, 133.256, 81.968)" font-size="15" font-family="SegoeUI, Segoe UI"><tspan x="0" y="0">E</tspan></text>
          </g>
        </g>
        <text id="_4" data-name=" " transform="matrix(-0.293, 0.956, -0.956, -0.293, 131.616, 89.356)" fill="#fff" font-size="15" font-family="SegoeUI, Segoe UI"><tspan x="0" y="0"> </tspan></text>
        <text id="_5" data-name=" " transform="translate(130.704 92.37) rotate(110.023)" fill="#fff" font-size="15" font-family="SegoeUI, Segoe UI"><tspan x="0" y="0"> </tspan></text>
        <text id="_6" data-name=" " transform="matrix(-0.391, 0.92, -0.92, -0.391, 129.643, 95.319)" fill="#fff" font-size="15" font-family="SegoeUI, Segoe UI"><tspan x="0" y="0"> </tspan></text>
        <text id="_7" data-name=" " transform="translate(128.414 98.235) rotate(116.032)" fill="#fff" font-size="15" font-family="SegoeUI, Segoe UI"><tspan x="0" y="0"> </tspan></text>
        <text id="_8" data-name=" " transform="translate(127.05 101.054) rotate(119.012)" fill="#fff" font-size="15" font-family="SegoeUI, Segoe UI"><tspan x="0" y="0"> </tspan></text>
        <text id="_9" data-name=" " transform="translate(125.522 103.828) rotate(122.018)" fill="#fff" font-size="15" font-family="SegoeUI, Segoe UI"><tspan x="0" y="0"> </tspan></text>
        <text id="S-2" data-name="S" transform="matrix(-0.603, 0.798, -0.798, -0.603, 124.006, 106.488)" font-size="15" font-family="SegoeUI, Segoe UI"><tspan x="0" y="0">S</tspan></text>
        <text id="C-2" data-name="C" transform="translate(119.496 112.58) rotate(134.744)" font-size="15" font-family="SegoeUI, Segoe UI"><tspan x="0" y="0">C</tspan></text>
        <text id="R-4" data-name="R" transform="translate(113.434 118.744) rotate(142.738)" font-size="15" font-family="SegoeUI, Segoe UI"><tspan x="0" y="0">R</tspan></text>
        <text id="O-5" data-name="O" transform="translate(107.082 123.752) rotate(151.314)" font-size="15" font-family="SegoeUI, Segoe UI"><tspan x="0" y="0">O</tspan></text>
        <text id="L-4" data-name="L" transform="translate(98.012 128.624) rotate(159.45)" font-size="15" font-family="SegoeUI, Segoe UI"><tspan x="0" y="0">L</tspan></text>
        <g id="Group_7" data-name="Group 7">
          <g id="Group_6" data-name="Group 6" clip-path="url(#clip-path-2)">
            <text id="L-5" data-name="L" transform="translate(91.581 131.069) rotate(166.017)" font-size="15" font-family="SegoeUI, Segoe UI"><tspan x="0" y="0">L</tspan></text>
            <text id="_10" data-name=" " transform="translate(84.829 132.687) rotate(170.794)" font-size="15" font-family="SegoeUI, Segoe UI"><tspan x="0" y="0"> </tspan></text>
            <text id="T-2" data-name="T" transform="translate(81.824 133.291) rotate(175.739)" font-size="15" font-family="SegoeUI, Segoe UI"><tspan x="0" y="0">T</tspan></text>
            <text id="O-6" data-name="O" transform="matrix(-0.998, -0.06, 0.06, -0.998, 75.112, 133.97)" font-size="15" font-family="SegoeUI, Segoe UI"><tspan x="0" y="0">O</tspan></text>
            <text id="_11" data-name=" " transform="matrix(-0.986, -0.17, 0.17, -0.986, 64.774, 133.177)" font-size="15" font-family="SegoeUI, Segoe UI"><tspan x="0" y="0"> </tspan></text>
            <text id="E-4" data-name="E" transform="translate(61.726 132.774) rotate(-165.171)" font-size="15" font-family="SegoeUI, Segoe UI"><tspan x="0" y="0">E</tspan></text>
          </g>
        </g>
        <text id="X-2" data-name="X" transform="matrix(-0.924, -0.382, 0.382, -0.924, 54.522, 130.945)" font-size="15" font-family="SegoeUI, Segoe UI"><tspan x="0" y="0">X</tspan></text>
        <text id="P-2" data-name="P" transform="matrix(-0.864, -0.504, 0.504, -0.864, 46.632, 127.707)" font-size="15" font-family="SegoeUI, Segoe UI"><tspan x="0" y="0">P</tspan></text>
        <text id="L-6" data-name="L" transform="matrix(-0.796, -0.605, 0.605, -0.796, 39.802, 123.727)" font-size="15" font-family="SegoeUI, Segoe UI"><tspan x="0" y="0">L</tspan></text>
        <text id="O-7" data-name="O" transform="matrix(-0.709, -0.706, 0.706, -0.709, 34.608, 120.017)" font-size="15" font-family="SegoeUI, Segoe UI"><tspan x="0" y="0">O</tspan></text>
        <text id="R-5" data-name="R" transform="translate(27.331 112.735) rotate(-126.363)" font-size="15" font-family="SegoeUI, Segoe UI"><tspan x="0" y="0">R</tspan></text>
        <text id="E-5" data-name="E" transform="translate(22.379 106.029) rotate(-118.903)" font-size="15" font-family="SegoeUI, Segoe UI"><tspan x="0" y="0">E</tspan></text>
        <text id="_12" data-name=" " transform="translate(18.798 99.38) rotate(-113.847)" fill="#fff" font-size="15" font-family="SegoeUI, Segoe UI"><tspan x="0" y="0"> </tspan></text>
        <g id="Group_9" data-name="Group 9">
          <g id="Group_8" data-name="Group 8" clip-path="url(#clip-path-2)">
            <text id="M-2" data-name="M" transform="translate(17.31 96.756) rotate(-106.855)" font-size="15" font-family="SegoeUI, Segoe UI"><tspan x="0" y="0">M</tspan></text>
            <text id="O-8" data-name="O" transform="translate(13.965 85.729) rotate(-96.521)" font-size="15" font-family="SegoeUI, Segoe UI"><tspan x="0" y="0">O</tspan></text>
            <text id="R-6" data-name="R" transform="translate(12.824 75.502) rotate(-87.823)" font-size="15" font-family="SegoeUI, Segoe UI"><tspan x="0" y="0">R</tspan></text>
            <text id="E-6" data-name="E" transform="translate(13.132 67.148) rotate(-80.367)" font-size="15" font-family="SegoeUI, Segoe UI"><tspan x="0" y="0">E</tspan></text>
          </g>
        </g>
      </g>
      <ellipse id="Ellipse_1" data-name="Ellipse 1" cx="4" cy="4" rx="4" ry="4" transform="matrix(0.966, 0.259, -0.259, 0.966, 11.664, 41.874)"/>
      <ellipse id="Ellipse_2" data-name="Ellipse 2" cx="4" cy="4" rx="4" ry="4" transform="matrix(0.966, 0.259, -0.259, 0.966, 130.32, 96.058)"/>
    </g>
  </g>
</svg>
