<svg xmlns="http://www.w3.org/2000/svg" xmlns:xlink="http://www.w3.org/1999/xlink" width="32" height="32" viewBox="0 0 32 32">
  <defs>
    <linearGradient id="linear-gradient" x1="0.5" x2="0.5" y2="1" gradientUnits="objectBoundingBox">
      <stop offset="0" stop-color="#f5882b"/>
      <stop offset="1" stop-color="#cd5e02"/>
    </linearGradient>
  </defs>
  <g id="Group_62" data-name="Group 62" transform="translate(-1128 -7850)">
    <rect id="Rectangle_39" data-name="Rectangle 39" width="32" height="32" transform="translate(1128 7850)" opacity="0" fill="url(#linear-gradient)"/>
    <g id="twitter" transform="translate(1128 7853)">
      <g id="Group_77" data-name="Group 77" transform="translate(0 0)">
        <path id="Path_37" data-name="Path 37" d="M32,51.078a13.673,13.673,0,0,1-3.78,1.036,6.523,6.523,0,0,0,2.886-3.626,13.112,13.112,0,0,1-4.16,1.588A6.56,6.56,0,0,0,15.6,54.562a6.755,6.755,0,0,0,.152,1.5A18.569,18.569,0,0,1,2.228,49.2a6.562,6.562,0,0,0,2.016,8.768,6.478,6.478,0,0,1-2.964-.808v.072a6.59,6.59,0,0,0,5.256,6.446,6.547,6.547,0,0,1-1.72.216,5.8,5.8,0,0,1-1.242-.112,6.623,6.623,0,0,0,6.13,4.57,13.182,13.182,0,0,1-8.134,2.8A12.3,12.3,0,0,1,0,71.056,18.47,18.47,0,0,0,10.064,74c12.072,0,18.672-10,18.672-18.668,0-.29-.01-.57-.024-.848A13.087,13.087,0,0,0,32,51.078Z" transform="translate(0 -48)" fill="#fff"/>
      </g>
    </g>
  </g>
</svg>
